# xmcd
#
# Track frame offsets: 
#        150
#        17527
#        33694
#        50818
#        64801
#        79498
#        95464
#        110242
#        125455
#        143148
#        160945
#        176088
#        193128
#        210110
#        225889
#        239748
#
# Disc length: 3408 seconds
#
# Revision: 0
# Processed by: cddbd v1.5.2PL0 Copyright (c) Steve Scherf et al.
# Submitted via: ExactAudioCopy v1.0b3
#
DISCID=e40d4e10
DTITLE=小林旭 - 小林旭大全集~渡り鳥AKIRA 50HISTORY~ Disc 4 CRCN-50120-24
DYEAR=1900
DGENRE=Blues
TTITLE0=泣いて昔が返るなら
TTITLE1=女房きどり
TTITLE2=北へ 
TTITLE3=遠くへ行きたい
TTITLE4=黒い傷痕のブルース
TTITLE5=もう一度一から出なおします 
TTITLE6=夢ん中
TTITLE7=霧の都会
TTITLE8=私の名前が変わります 
TTITLE9=北海岸 
TTITLE10=赤いトラクター
TTITLE11=氷雪海峡 
TTITLE12=わかれの演歌
TTITLE13=やどかり
TTITLE14=日暮れ行き暮れ
TTITLE15=みだれ雲 
EXTD=
EXTT0=
EXTT1=
EXTT2=
EXTT3=
EXTT4=
EXTT5=
EXTT6=
EXTT7=
EXTT8=
EXTT9=
EXTT10=
EXTT11=
EXTT12=
EXTT13=
EXTT14=
EXTT15=
PLAYORDER=
